Coordinates
version=1
nRows=11
nColumns=40
inDegrees=yes

Units are S.I. units (second, meters, Newtons, ...)
Angles are in degrees.

endheader
time	pelvis_tilt	pelvis_list	pelvis_rotation	pelvis_tx	pelvis_ty	pelvis_tz	hip_flexion_r	hip_adduction_r	hip_rotation_r	knee_angle_r	knee_angle_r_beta	ankle_angle_r	subtalar_angle_r	mtp_angle_r	hip_flexion_l	hip_adduction_l	hip_rotation_l	knee_angle_l	knee_angle_l_beta	ankle_angle_l	subtalar_angle_l	mtp_angle_l	lumbar_extension	lumbar_bending	lumbar_rotation	arm_flex_r	arm_add_r	arm_rot_r	elbow_flex_r	pro_sup_r	wrist_flex_r	wrist_dev_r	arm_flex_l	arm_add_l	arm_rot_l	elbow_flex_l	pro_sup_l	wrist_flex_l	wrist_dev_l
     12.04750000	     -2.14608762	     -4.37665481	      3.03487633	      1.00023087	      0.93604121	      0.52735577	      5.64565465	      4.44351380	    -17.69904715	     10.99667778	     10.99667778	     10.62074433	      6.29719272	     -6.03401422	     30.74958393	    -12.42527167	     -1.43074584	     43.88022219	     43.88022219	     11.04694166	    -17.56443222	     13.71060112	     -9.94265202	      6.02613577	      2.58136359	     26.06964575	    -21.30702915	     -8.09878384	     61.22134339	     45.23720943	      0.00000000	      0.00000000	     -2.19184524	     -6.67738643	     -0.00237308	     28.08387221	     45.27041679	      0.00000000	      0.00000000
     12.06100000	     -2.24982758	     -4.17713624	      3.26570101	      0.99930444	      0.93599895	      0.52719992	      5.17507601	      4.29189450	    -17.96758382	     10.51065518	     10.51065518	     10.74097059	      6.67975254	     -6.11469432	     30.65500392	    -11.76017536	     -1.38046271	     40.08218468	     40.08218468	     10.81263430	    -16.71997548	     13.72501825	     -9.99519501	      5.83434120	      2.53064947	     27.36864081	    -21.20046243	     -8.30129863	     62.22641214	     45.21834347	      0.00000000	      0.00000000	     -3.23302838	     -6.30943148	      0.25316879	     27.57037492	     45.21615794	      0.00000000	      0.00000000
     12.07450000	     -2.25531631	     -4.25705894	      3.54417031	      0.99849387	      0.93570035	      0.52693240	      4.66504568	      4.35191425	    -18.88128577	     10.18264678	     10.18264678	     10.86573089	      7.96622952	     -6.62482090	     30.32193224	    -11.37858672	     -1.17780141	     36.01695049	     36.01695049	      8.77033469	    -15.98840747	      9.08781993	    -10.12960652	      6.00890995	      2.67149501	     28.31750410	    -21.06593634	     -9.15602367	     63.76704089	     45.22518066	      0.00000000	      0.00000000	     -4.14432332	     -6.18428325	      2.04549128	     27.03694545	     44.94897169	      0.00000000	      0.00000000
     12.08800000	     -2.41389966	     -4.29449050	      3.75811606	      0.99750166	      0.93516950	      0.52663821	      4.43790101	      4.42222260	    -18.97967747	     10.01299839	     10.01299839	     11.06901201	      7.92040385	     -6.68904254	     30.33223999	    -10.95752568	     -0.90854077	     32.58163692	     32.58163692	      8.69994088	    -14.29861948	      9.39413273	    -10.09542337	      6.08799916	      2.80939200	     29.44826294	    -21.09940539	     -9.27236456	     64.44021811	     45.21433314	      0.00000000	      0.00000000	     -4.97916799	     -5.82696978	      2.27884301	     26.66485484	     44.90313564	      0.00000000	      0.00000000
     12.10150000	     -2.57373472	     -4.38050511	      3.95246337	      0.99657389	      0.93456896	      0.52623227	      4.23233241	      4.52111796	    -19.16691227	      9.88546849	      9.88546849	     11.27558816	      8.00619890	     -6.78268037	     30.34263264	    -10.60873087	     -0.66480049	     29.41631407	     29.41631407	      8.62983969	    -12.46466679	      9.63960801	    -10.05343254	      6.21623245	      2.93327729	     30.55106676	    -21.09640991	     -9.39873714	     65.08115092	     45.20427266	      0.00000000	      0.00000000	     -5.72075329	     -5.48138995	      2.48853184	     26.31641928	     44.86106376	      0.00000000	      0.00000000
     12.11500000	     -2.62814367	     -4.43057215	      4.11039170	      0.99580713	      0.93407957	      0.52580195	      3.90285108	      4.57584424	    -19.35854939	      9.78056432	      9.78056432	     11.52078355	      8.23445821	     -6.87811615	     30.21319953	    -10.30266140	     -0.58975076	     26.56438228	     26.56438228	      8.51844430	    -10.51866090	      9.80506300	    -10.12294714	      6.29999891	      2.95310667	     31.61222788	    -20.89712097	     -9.52888003	     65.75565403	     45.19342457	      0.00000000	      0.00000000	     -6.46648930	     -5.23807150	      2.74867365	     25.91043082	     44.81157262	      0.00000000	      0.00000000
     12.12850000	     -2.69815819	     -4.52202891	      4.26227524	      0.99512805	      0.93351792	      0.52528354	      3.60411532	      4.66738561	    -19.58300110	      9.70579571	      9.70579571	     11.79194804	      8.44734822	     -6.95023966	     30.16953762	    -10.05782775	     -0.60654086	     24.19615027	     24.19615027	      8.38468649	     -8.80182736	      9.95384248	    -10.14494976	      6.43343040	      2.99628187	     32.60109506	    -20.70087761	     -9.67203544	     66.33204299	     45.18628534	      0.00000000	      0.00000000	     -7.11551739	     -5.01463571	      3.01763856	     25.56463730	     44.76188613	      0.00000000	      0.00000000
     12.14200000	     -2.74218594	     -4.58929794	      4.37408854	      0.99458612	      0.93299591	      0.52473125	      3.27478212	      4.72889313	    -19.74981569	      9.65086209	      9.65086209	     12.07186694	      8.67252793	     -6.96003909	     30.13245872	     -9.83324316	     -0.77058064	     22.34335729	     22.34335729	      8.24277971	     -7.37060775	     10.04689967	    -10.19179872	      6.50917630	      3.00948382	     33.50403978	    -20.42438908	     -9.82466961	     66.83360604	     45.18232019	      0.00000000	      0.00000000	     -7.69860027	     -4.85414934	      3.32839061	     25.26054273	     44.70725818	      0.00000000	      0.00000000
     12.15550000	     -2.81959455	     -4.66228251	      4.46313676	      0.99413194	      0.93243365	      0.52406313	      2.99135614	      4.79131720	    -19.79921862	      9.61876832	      9.61876832	     12.34890571	      8.77175902	     -6.95297548	     30.20001169	     -9.61075812	     -0.95290850	     21.06530167	     21.06530167	      8.02313057	     -6.45194443	     10.17394552	    -10.16150273	      6.61593310	      3.11250757	     34.23888618	    -20.22493468	     -9.92954396	     67.20177442	     45.17950315	      0.00000000	      0.00000000	     -8.16874751	     -4.73453978	      3.54290953	     25.06955602	     44.66847840	      0.00000000	      0.00000000
     12.16900000	     -2.89925202	     -4.74326530	      4.51178468	      0.99386372	      0.93182322	      0.52343713	      2.70097346	      4.87378883	    -19.80863474	      9.58997470	      9.58997470	     12.64920085	      8.77781600	     -6.95041176	     30.31790414	     -9.43334273	     -1.23238639	     20.35549058	     20.35549058	      7.83361727	     -6.02586018	     10.23588857	    -10.12927193	      6.65311157	      3.25532208	     34.86291854	    -20.07433529	     -9.99898650	     67.50445584	     45.17625849	      0.00000000	      0.00000000	     -8.56782895	     -4.65711831	      3.67502851	     24.94172856	     44.64294508	      0.00000000	      0.00000000
     12.18250000	     -2.94892769	     -4.83027212	      4.59336465	      0.99383587	      0.93120042	      0.52269736	      2.37192037	      4.95777167	    -19.83623194	      9.57947402	      9.57947402	     12.95422303	      8.74384346	     -7.02200250	     30.48251951	     -9.25983587	     -1.46326268	     20.26505526	     20.26505526	      7.64353677	     -6.03348661	     10.30586379	    -10.02690918	      6.66950725	      3.46268910	     35.07806057	    -20.00248679	     -9.99376488	     67.59749167	     45.17409138	      0.00000000	      0.00000000	     -8.77813010	     -4.66743943	      3.68783455	     24.86882685	     44.63772615	      0.00000000	      0.00000000
